solid OpenSCAD_Model
  facet normal 0.999229 0.0392622 0
    outer loop
      vertex 5 0 20
      vertex 4.98459 0.392295 0
      vertex 4.98459 0.392295 20
    endloop
  endfacet
  facet normal 0.999229 0.0392622 0
    outer loop
      vertex 4.98459 0.392295 0
      vertex 5 0 20
      vertex 5 0 0
    endloop
  endfacet
  facet normal -0.999229 0.0392622 0
    outer loop
      vertex -5 0 0
      vertex -4.98459 0.392295 20
      vertex -4.98459 0.392295 0
    endloop
  endfacet
  facet normal -0.999229 0.0392622 0
    outer loop
      vertex -4.98459 0.392295 20
      vertex -5 0 0
      vertex -5 0 20
    endloop
  endfacet
  facet normal 0.0392622 0.999229 -0
    outer loop
      vertex 0.392295 4.98459 0
      vertex 0 5 20
      vertex 0.392295 4.98459 20
    endloop
  endfacet
  facet normal 0.0392622 0.999229 0
    outer loop
      vertex 0 5 20
      vertex 0.392295 4.98459 0
      vertex 0 5 0
    endloop
  endfacet
  facet normal -0.0392622 -0.999229 0
    outer loop
      vertex -0.392295 -4.98459 0
      vertex 0 -5 20
      vertex -0.392295 -4.98459 20
    endloop
  endfacet
  facet normal -0.0392622 -0.999229 -0
    outer loop
      vertex 0 -5 20
      vertex -0.392295 -4.98459 0
      vertex 0 -5 0
    endloop
  endfacet
  facet normal -0.734323 -0.6788 0
    outer loop
      vertex -3.53553 -3.53553 0
      vertex -3.80203 -3.24724 20
      vertex -3.80203 -3.24724 0
    endloop
  endfacet
  facet normal -0.734323 -0.6788 0
    outer loop
      vertex -3.80203 -3.24724 20
      vertex -3.53553 -3.53553 0
      vertex -3.53553 -3.53553 20
    endloop
  endfacet
  facet normal 0.734323 0.6788 0
    outer loop
      vertex 3.80203 3.24724 20
      vertex 3.53553 3.53553 0
      vertex 3.53553 3.53553 20
    endloop
  endfacet
  facet normal 0.734323 0.6788 0
    outer loop
      vertex 3.53553 3.53553 0
      vertex 3.80203 3.24724 20
      vertex 3.80203 3.24724 0
    endloop
  endfacet
  facet normal -0.6788 0.734323 0
    outer loop
      vertex -3.24724 3.80203 0
      vertex -3.53553 3.53553 20
      vertex -3.24724 3.80203 20
    endloop
  endfacet
  facet normal -0.6788 0.734323 0
    outer loop
      vertex -3.53553 3.53553 20
      vertex -3.24724 3.80203 0
      vertex -3.53553 3.53553 0
    endloop
  endfacet
  facet normal -0.346118 0.938191 0
    outer loop
      vertex -1.54508 4.75528 0
      vertex -1.91342 4.6194 20
      vertex -1.54508 4.75528 20
    endloop
  endfacet
  facet normal -0.346118 0.938191 0
    outer loop
      vertex -1.91342 4.6194 20
      vertex -1.54508 4.75528 0
      vertex -1.91342 4.6194 0
    endloop
  endfacet
  facet normal -0.938191 -0.346118 0
    outer loop
      vertex -4.6194 -1.91342 0
      vertex -4.75528 -1.54508 20
      vertex -4.75528 -1.54508 0
    endloop
  endfacet
  facet normal -0.938191 -0.346118 0
    outer loop
      vertex -4.75528 -1.54508 20
      vertex -4.6194 -1.91342 0
      vertex -4.6194 -1.91342 20
    endloop
  endfacet
  facet normal 0.938191 0.346118 0
    outer loop
      vertex 4.75528 1.54508 20
      vertex 4.6194 1.91342 0
      vertex 4.6194 1.91342 20
    endloop
  endfacet
  facet normal 0.938191 0.346118 0
    outer loop
      vertex 4.6194 1.91342 0
      vertex 4.75528 1.54508 20
      vertex 4.75528 1.54508 0
    endloop
  endfacet
  facet normal 0.41866 0.908143 -0
    outer loop
      vertex 2.26995 4.45503 0
      vertex 1.91342 4.6194 20
      vertex 2.26995 4.45503 20
    endloop
  endfacet
  facet normal 0.41866 0.908143 0
    outer loop
      vertex 1.91342 4.6194 20
      vertex 2.26995 4.45503 0
      vertex 1.91342 4.6194 0
    endloop
  endfacet
  facet normal 0.55557 0.831469 -0
    outer loop
      vertex 2.93893 4.04508 0
      vertex 2.61249 4.2632 20
      vertex 2.93893 4.04508 20
    endloop
  endfacet
  facet normal 0.55557 0.831469 0
    outer loop
      vertex 2.61249 4.2632 20
      vertex 2.93893 4.04508 0
      vertex 2.61249 4.2632 0
    endloop
  endfacet
  facet normal -0.908143 0.41866 0
    outer loop
      vertex -4.6194 1.91342 0
      vertex -4.45503 2.26995 20
      vertex -4.45503 2.26995 0
    endloop
  endfacet
  facet normal -0.908143 0.41866 0
    outer loop
      vertex -4.45503 2.26995 20
      vertex -4.6194 1.91342 0
      vertex -4.6194 1.91342 20
    endloop
  endfacet
  facet normal -0.117536 0.993069 0
    outer loop
      vertex -0.392295 4.98459 0
      vertex -0.782172 4.93844 20
      vertex -0.392295 4.98459 20
    endloop
  endfacet
  facet normal -0.117536 0.993069 0
    outer loop
      vertex -0.782172 4.93844 20
      vertex -0.392295 4.98459 0
      vertex -0.782172 4.93844 0
    endloop
  endfacet
  facet normal 0.938191 -0.346118 0
    outer loop
      vertex 4.6194 -1.91342 20
      vertex 4.75528 -1.54508 0
      vertex 4.75528 -1.54508 20
    endloop
  endfacet
  facet normal 0.938191 -0.346118 0
    outer loop
      vertex 4.75528 -1.54508 0
      vertex 4.6194 -1.91342 20
      vertex 4.6194 -1.91342 0
    endloop
  endfacet
  facet normal 0 0 -1
    outer loop
      vertex 2.5 -2.5 0
      vertex 5 0 0
      vertex 4.98459 -0.392295 0
    endloop
  endfacet
  facet normal 0 0 -1
    outer loop
      vertex 2.5 -2.5 0
      vertex 4.98459 -0.392295 0
      vertex 4.93844 -0.782172 0
    endloop
  endfacet
  facet normal 0 0 -1
    outer loop
      vertex 2.5 2.5 0
      vertex 5 0 0
      vertex 2.5 -2.5 0
    endloop
  endfacet
  facet normal 0 0 -1
    outer loop
      vertex 2.5 -2.5 0
      vertex 4.93844 -0.782172 0
      vertex 4.86185 -1.16723 0
    endloop
  endfacet
  facet normal 0 0 -1
    outer loop
      vertex 5 0 0
      vertex 2.5 2.5 0
      vertex 4.98459 0.392295 0
    endloop
  endfacet
  facet normal 0 0 -1
    outer loop
      vertex 2.5 -2.5 0
      vertex 4.86185 -1.16723 0
      vertex 4.75528 -1.54508 0
    endloop
  endfacet
  facet normal 0 0 -1
    outer loop
      vertex 4.98459 0.392295 0
      vertex 2.5 2.5 0
      vertex 4.93844 0.782172 0
    endloop
  endfacet
  facet normal 0 0 -1
    outer loop
      vertex 2.5 -2.5 0
      vertex 4.75528 -1.54508 0
      vertex 4.6194 -1.91342 0
    endloop
  endfacet
  facet normal 0 0 -1
    outer loop
      vertex 4.93844 0.782172 0
      vertex 2.5 2.5 0
      vertex 4.86185 1.16723 0
    endloop
  endfacet
  facet normal 0 0 -1
    outer loop
      vertex 2.5 -2.5 0
      vertex 4.6194 -1.91342 0
      vertex 4.45503 -2.26995 0
    endloop
  endfacet
  facet normal 0 0 -1
    outer loop
      vertex 4.86185 1.16723 0
      vertex 2.5 2.5 0
      vertex 4.75528 1.54508 0
    endloop
  endfacet
  facet normal 0 0 -1
    outer loop
      vertex 2.5 -2.5 0
      vertex 4.45503 -2.26995 0
      vertex 4.2632 -2.61249 0
    endloop
  endfacet
  facet normal 0 0 -1
    outer loop
      vertex 4.75528 1.54508 0
      vertex 2.5 2.5 0
      vertex 4.6194 1.91342 0
    endloop
  endfacet
  facet normal 0 0 -1
    outer loop
      vertex 2.5 -2.5 0
      vertex 4.2632 -2.61249 0
      vertex 4.04508 -2.93893 0
    endloop
  endfacet
  facet normal 0 0 -1
    outer loop
      vertex 4.6194 1.91342 0
      vertex 2.5 2.5 0
      vertex 4.45503 2.26995 0
    endloop
  endfacet
  facet normal 0 0 -1
    outer loop
      vertex 2.5 -2.5 0
      vertex 4.04508 -2.93893 0
      vertex 3.80203 -3.24724 0
    endloop
  endfacet
  facet normal 0 0 -1
    outer loop
      vertex 4.45503 2.26995 0
      vertex 2.5 2.5 0
      vertex 4.2632 2.61249 0
    endloop
  endfacet
  facet normal 0 0 -1
    outer loop
      vertex 2.5 -2.5 0
      vertex 3.80203 -3.24724 0
      vertex 3.53553 -3.53553 0
    endloop
  endfacet
  facet normal -0 0 -1
    outer loop
      vertex 4.2632 2.61249 0
      vertex 2.5 2.5 0
      vertex 4.04508 2.93893 0
    endloop
  endfacet
  facet normal 0 0 -1
    outer loop
      vertex 2.5 -2.5 0
      vertex 3.53553 -3.53553 0
      vertex 3.24724 -3.80203 0
    endloop
  endfacet
  facet normal -0 0 -1
    outer loop
      vertex 4.04508 2.93893 0
      vertex 2.5 2.5 0
      vertex 3.80203 3.24724 0
    endloop
  endfacet
  facet normal 0 0 -1
    outer loop
      vertex 2.5 -2.5 0
      vertex 3.24724 -3.80203 0
      vertex 2.93893 -4.04508 0
    endloop
  endfacet
  facet normal -0 0 -1
    outer loop
      vertex 3.80203 3.24724 0
      vertex 2.5 2.5 0
      vertex 3.53553 3.53553 0
    endloop
  endfacet
  facet normal 0 0 -1
    outer loop
      vertex 2.5 -2.5 0
      vertex 2.93893 -4.04508 0
      vertex 2.61249 -4.2632 0
    endloop
  endfacet
  facet normal -0 0 -1
    outer loop
      vertex 3.53553 3.53553 0
      vertex 2.5 2.5 0
      vertex 3.24724 3.80203 0
    endloop
  endfacet
  facet normal -0 0 -1
    outer loop
      vertex 3.24724 3.80203 0
      vertex 2.5 2.5 0
      vertex 2.93893 4.04508 0
    endloop
  endfacet
  facet normal 0 0 -1
    outer loop
      vertex 2.26995 -4.45503 0
      vertex 2.5 -2.5 0
      vertex 2.61249 -4.2632 0
    endloop
  endfacet
  facet normal 0 0 -1
    outer loop
      vertex 1.91342 -4.6194 0
      vertex 2.5 -2.5 0
      vertex 2.26995 -4.45503 0
    endloop
  endfacet
  facet normal 0 0 -1
    outer loop
      vertex 1.54508 -4.75528 0
      vertex 2.5 -2.5 0
      vertex 1.91342 -4.6194 0
    endloop
  endfacet
  facet normal 0 0 -1
    outer loop
      vertex 1.16723 -4.86185 0
      vertex 2.5 -2.5 0
      vertex 1.54508 -4.75528 0
    endloop
  endfacet
  facet normal 0 0 -1
    outer loop
      vertex 0.782172 -4.93844 0
      vertex 2.5 -2.5 0
      vertex 1.16723 -4.86185 0
    endloop
  endfacet
  facet normal 0 0 -1
    outer loop
      vertex 0.392295 -4.98459 0
      vertex 2.5 -2.5 0
      vertex 0.782172 -4.93844 0
    endloop
  endfacet
  facet normal 0 0 -1
    outer loop
      vertex 0 -5 0
      vertex 2.5 -2.5 0
      vertex 0.392295 -4.98459 0
    endloop
  endfacet
  facet normal 0 0 -1
    outer loop
      vertex -2.5 -2.5 0
      vertex 0 -5 0
      vertex -0.392295 -4.98459 0
    endloop
  endfacet
  facet normal 0 0 -1
    outer loop
      vertex -2.5 -2.5 0
      vertex -0.392295 -4.98459 0
      vertex -0.782172 -4.93844 0
    endloop
  endfacet
  facet normal 0 0 -1
    outer loop
      vertex -2.5 -2.5 0
      vertex -0.782172 -4.93844 0
      vertex -1.16723 -4.86185 0
    endloop
  endfacet
  facet normal 0 0 -1
    outer loop
      vertex -2.5 -2.5 0
      vertex -1.16723 -4.86185 0
      vertex -1.54508 -4.75528 0
    endloop
  endfacet
  facet normal 0 0 -1
    outer loop
      vertex -2.5 -2.5 0
      vertex -1.54508 -4.75528 0
      vertex -1.91342 -4.6194 0
    endloop
  endfacet
  facet normal 0 0 -1
    outer loop
      vertex -2.5 -2.5 0
      vertex -1.91342 -4.6194 0
      vertex -2.26995 -4.45503 0
    endloop
  endfacet
  facet normal 0 0 -1
    outer loop
      vertex 0 -5 0
      vertex -2.5 -2.5 0
      vertex 2.5 -2.5 0
    endloop
  endfacet
  facet normal 0 0 -1
    outer loop
      vertex -2.93893 -4.04508 0
      vertex -2.5 -2.5 0
      vertex -2.61249 -4.2632 0
    endloop
  endfacet
  facet normal 0 0 -1
    outer loop
      vertex -2.61249 -4.2632 0
      vertex -2.5 -2.5 0
      vertex -2.26995 -4.45503 0
    endloop
  endfacet
  facet normal -0 0 -1
    outer loop
      vertex 2.93893 4.04508 0
      vertex 2.5 2.5 0
      vertex 2.61249 4.2632 0
    endloop
  endfacet
  facet normal 0 0 -1
    outer loop
      vertex 2.5 2.5 0
      vertex 2.26995 4.45503 0
      vertex 2.61249 4.2632 0
    endloop
  endfacet
  facet normal 0 0 -1
    outer loop
      vertex 2.5 2.5 0
      vertex 1.91342 4.6194 0
      vertex 2.26995 4.45503 0
    endloop
  endfacet
  facet normal 0 0 -1
    outer loop
      vertex 2.5 2.5 0
      vertex 1.54508 4.75528 0
      vertex 1.91342 4.6194 0
    endloop
  endfacet
  facet normal 0 0 -1
    outer loop
      vertex 2.5 2.5 0
      vertex 1.16723 4.86185 0
      vertex 1.54508 4.75528 0
    endloop
  endfacet
  facet normal 0 0 -1
    outer loop
      vertex 2.5 2.5 0
      vertex 0.782172 4.93844 0
      vertex 1.16723 4.86185 0
    endloop
  endfacet
  facet normal 0 0 -1
    outer loop
      vertex 2.5 2.5 0
      vertex 0.392295 4.98459 0
      vertex 0.782172 4.93844 0
    endloop
  endfacet
  facet normal 0 0 -1
    outer loop
      vertex 2.5 2.5 0
      vertex 0 5 0
      vertex 0.392295 4.98459 0
    endloop
  endfacet
  facet normal 0 0 -1
    outer loop
      vertex -2.5 2.5 0
      vertex 0 5 0
      vertex 2.5 2.5 0
    endloop
  endfacet
  facet normal 0 0 -1
    outer loop
      vertex 0 5 0
      vertex -2.5 2.5 0
      vertex -0.392295 4.98459 0
    endloop
  endfacet
  facet normal 0 0 -1
    outer loop
      vertex -0.392295 4.98459 0
      vertex -2.5 2.5 0
      vertex -0.782172 4.93844 0
    endloop
  endfacet
  facet normal 0 0 -1
    outer loop
      vertex -0.782172 4.93844 0
      vertex -2.5 2.5 0
      vertex -1.16723 4.86185 0
    endloop
  endfacet
  facet normal 0 0 -1
    outer loop
      vertex -1.16723 4.86185 0
      vertex -2.5 2.5 0
      vertex -1.54508 4.75528 0
    endloop
  endfacet
  facet normal 0 0 -1
    outer loop
      vertex -1.54508 4.75528 0
      vertex -2.5 2.5 0
      vertex -1.91342 4.6194 0
    endloop
  endfacet
  facet normal 0 0 -1
    outer loop
      vertex -1.91342 4.6194 0
      vertex -2.5 2.5 0
      vertex -2.26995 4.45503 0
    endloop
  endfacet
  facet normal 0 0 -1
    outer loop
      vertex -2.5 2.5 0
      vertex -2.61249 4.2632 0
      vertex -2.26995 4.45503 0
    endloop
  endfacet
  facet normal 0 0 -1
    outer loop
      vertex -3.24724 -3.80203 0
      vertex -2.5 -2.5 0
      vertex -2.93893 -4.04508 0
    endloop
  endfacet
  facet normal 0 0 -1
    outer loop
      vertex -3.53553 -3.53553 0
      vertex -2.5 -2.5 0
      vertex -3.24724 -3.80203 0
    endloop
  endfacet
  facet normal 0 0 -1
    outer loop
      vertex -2.5 2.5 0
      vertex -2.93893 4.04508 0
      vertex -2.61249 4.2632 0
    endloop
  endfacet
  facet normal 0 0 -1
    outer loop
      vertex -3.80203 -3.24724 0
      vertex -2.5 -2.5 0
      vertex -3.53553 -3.53553 0
    endloop
  endfacet
  facet normal 0 0 -1
    outer loop
      vertex -2.5 2.5 0
      vertex -3.24724 3.80203 0
      vertex -2.93893 4.04508 0
    endloop
  endfacet
  facet normal 0 0 -1
    outer loop
      vertex -4.04508 -2.93893 0
      vertex -2.5 -2.5 0
      vertex -3.80203 -3.24724 0
    endloop
  endfacet
  facet normal 0 0 -1
    outer loop
      vertex -2.5 2.5 0
      vertex -3.53553 3.53553 0
      vertex -3.24724 3.80203 0
    endloop
  endfacet
  facet normal 0 0 -1
    outer loop
      vertex -4.2632 -2.61249 0
      vertex -2.5 -2.5 0
      vertex -4.04508 -2.93893 0
    endloop
  endfacet
  facet normal 0 0 -1
    outer loop
      vertex -2.5 2.5 0
      vertex -3.80203 3.24724 0
      vertex -3.53553 3.53553 0
    endloop
  endfacet
  facet normal 0 0 -1
    outer loop
      vertex -4.45503 -2.26995 0
      vertex -2.5 -2.5 0
      vertex -4.2632 -2.61249 0
    endloop
  endfacet
  facet normal 0 0 -1
    outer loop
      vertex -2.5 2.5 0
      vertex -4.04508 2.93893 0
      vertex -3.80203 3.24724 0
    endloop
  endfacet
  facet normal 0 0 -1
    outer loop
      vertex -4.6194 -1.91342 0
      vertex -2.5 -2.5 0
      vertex -4.45503 -2.26995 0
    endloop
  endfacet
  facet normal 0 0 -1
    outer loop
      vertex -2.5 2.5 0
      vertex -4.2632 2.61249 0
      vertex -4.04508 2.93893 0
    endloop
  endfacet
  facet normal 0 0 -1
    outer loop
      vertex -4.75528 -1.54508 0
      vertex -2.5 -2.5 0
      vertex -4.6194 -1.91342 0
    endloop
  endfacet
  facet normal -0 0 -1
    outer loop
      vertex -2.5 2.5 0
      vertex -4.45503 2.26995 0
      vertex -4.2632 2.61249 0
    endloop
  endfacet
  facet normal 0 0 -1
    outer loop
      vertex -4.86185 -1.16723 0
      vertex -2.5 -2.5 0
      vertex -4.75528 -1.54508 0
    endloop
  endfacet
  facet normal 0 0 -1
    outer loop
      vertex -2.5 2.5 0
      vertex -4.6194 1.91342 0
      vertex -4.45503 2.26995 0
    endloop
  endfacet
  facet normal 0 0 -1
    outer loop
      vertex -4.93844 -0.782172 0
      vertex -2.5 -2.5 0
      vertex -4.86185 -1.16723 0
    endloop
  endfacet
  facet normal 0 0 -1
    outer loop
      vertex -2.5 2.5 0
      vertex -4.75528 1.54508 0
      vertex -4.6194 1.91342 0
    endloop
  endfacet
  facet normal 0 0 -1
    outer loop
      vertex -4.98459 -0.392295 0
      vertex -2.5 -2.5 0
      vertex -4.93844 -0.782172 0
    endloop
  endfacet
  facet normal 0 0 -1
    outer loop
      vertex -2.5 2.5 0
      vertex -4.86185 1.16723 0
      vertex -4.75528 1.54508 0
    endloop
  endfacet
  facet normal 0 0 -1
    outer loop
      vertex -5 0 0
      vertex -2.5 -2.5 0
      vertex -4.98459 -0.392295 0
    endloop
  endfacet
  facet normal 0 0 -1
    outer loop
      vertex -2.5 2.5 0
      vertex -4.93844 0.782172 0
      vertex -4.86185 1.16723 0
    endloop
  endfacet
  facet normal 0 0 -1
    outer loop
      vertex -2.5 -2.5 0
      vertex -5 0 0
      vertex -2.5 2.5 0
    endloop
  endfacet
  facet normal 0 0 -1
    outer loop
      vertex -2.5 2.5 0
      vertex -4.98459 0.392295 0
      vertex -4.93844 0.782172 0
    endloop
  endfacet
  facet normal 0 0 -1
    outer loop
      vertex -2.5 2.5 0
      vertex -5 0 0
      vertex -4.98459 0.392295 0
    endloop
  endfacet
  facet normal 0.980785 0.195091 0
    outer loop
      vertex 4.93844 0.782172 20
      vertex 4.86185 1.16723 0
      vertex 4.86185 1.16723 20
    endloop
  endfacet
  facet normal 0.980785 0.195091 0
    outer loop
      vertex 4.86185 1.16723 0
      vertex 4.93844 0.782172 20
      vertex 4.93844 0.782172 0
    endloop
  endfacet
  facet normal 0.993069 0.117536 0
    outer loop
      vertex 4.98459 0.392295 20
      vertex 4.93844 0.782172 0
      vertex 4.93844 0.782172 20
    endloop
  endfacet
  facet normal 0.993069 0.117536 0
    outer loop
      vertex 4.93844 0.782172 0
      vertex 4.98459 0.392295 20
      vertex 4.98459 0.392295 0
    endloop
  endfacet
  facet normal 0.962456 0.271439 0
    outer loop
      vertex 4.86185 1.16723 20
      vertex 4.75528 1.54508 0
      vertex 4.75528 1.54508 20
    endloop
  endfacet
  facet normal 0.962456 0.271439 0
    outer loop
      vertex 4.75528 1.54508 0
      vertex 4.86185 1.16723 20
      vertex 4.86185 1.16723 0
    endloop
  endfacet
  facet normal 0.872496 0.48862 0
    outer loop
      vertex 4.45503 2.26995 20
      vertex 4.2632 2.61249 0
      vertex 4.2632 2.61249 20
    endloop
  endfacet
  facet normal 0.872496 0.48862 0
    outer loop
      vertex 4.2632 2.61249 0
      vertex 4.45503 2.26995 20
      vertex 4.45503 2.26995 0
    endloop
  endfacet
  facet normal 0.831469 0.55557 0
    outer loop
      vertex 4.2632 2.61249 20
      vertex 4.04508 2.93893 0
      vertex 4.04508 2.93893 20
    endloop
  endfacet
  facet normal 0.831469 0.55557 0
    outer loop
      vertex 4.04508 2.93893 0
      vertex 4.2632 2.61249 20
      vertex 4.2632 2.61249 0
    endloop
  endfacet
  facet normal 0.908143 0.41866 0
    outer loop
      vertex 4.6194 1.91342 20
      vertex 4.45503 2.26995 0
      vertex 4.45503 2.26995 20
    endloop
  endfacet
  facet normal 0.908143 0.41866 0
    outer loop
      vertex 4.45503 2.26995 0
      vertex 4.6194 1.91342 20
      vertex 4.6194 1.91342 0
    endloop
  endfacet
  facet normal 0.195091 0.980785 -0
    outer loop
      vertex 1.16723 4.86185 0
      vertex 0.782172 4.93844 20
      vertex 1.16723 4.86185 20
    endloop
  endfacet
  facet normal 0.195091 0.980785 0
    outer loop
      vertex 0.782172 4.93844 20
      vertex 1.16723 4.86185 0
      vertex 0.782172 4.93844 0
    endloop
  endfacet
  facet normal 0.346118 0.938191 -0
    outer loop
      vertex 1.91342 4.6194 0
      vertex 1.54508 4.75528 20
      vertex 1.91342 4.6194 20
    endloop
  endfacet
  facet normal 0.346118 0.938191 0
    outer loop
      vertex 1.54508 4.75528 20
      vertex 1.91342 4.6194 0
      vertex 1.54508 4.75528 0
    endloop
  endfacet
  facet normal 0.117536 0.993069 -0
    outer loop
      vertex 0.782172 4.93844 0
      vertex 0.392295 4.98459 20
      vertex 0.782172 4.93844 20
    endloop
  endfacet
  facet normal 0.117536 0.993069 0
    outer loop
      vertex 0.392295 4.98459 20
      vertex 0.782172 4.93844 0
      vertex 0.392295 4.98459 0
    endloop
  endfacet
  facet normal 0.48862 0.872496 -0
    outer loop
      vertex 2.61249 4.2632 0
      vertex 2.26995 4.45503 20
      vertex 2.61249 4.2632 20
    endloop
  endfacet
  facet normal 0.48862 0.872496 0
    outer loop
      vertex 2.26995 4.45503 20
      vertex 2.61249 4.2632 0
      vertex 2.26995 4.45503 0
    endloop
  endfacet
  facet normal 0.619094 0.785317 -0
    outer loop
      vertex 3.24724 3.80203 0
      vertex 2.93893 4.04508 20
      vertex 3.24724 3.80203 20
    endloop
  endfacet
  facet normal 0.619094 0.785317 0
    outer loop
      vertex 2.93893 4.04508 20
      vertex 3.24724 3.80203 0
      vertex 2.93893 4.04508 0
    endloop
  endfacet
  facet normal -0.980785 0.195091 0
    outer loop
      vertex -4.93844 0.782172 0
      vertex -4.86185 1.16723 20
      vertex -4.86185 1.16723 0
    endloop
  endfacet
  facet normal -0.980785 0.195091 0
    outer loop
      vertex -4.86185 1.16723 20
      vertex -4.93844 0.782172 0
      vertex -4.93844 0.782172 20
    endloop
  endfacet
  facet normal -0.831469 0.55557 0
    outer loop
      vertex -4.2632 2.61249 0
      vertex -4.04508 2.93893 20
      vertex -4.04508 2.93893 0
    endloop
  endfacet
  facet normal -0.831469 0.55557 0
    outer loop
      vertex -4.04508 2.93893 20
      vertex -4.2632 2.61249 0
      vertex -4.2632 2.61249 20
    endloop
  endfacet
  facet normal -0.872496 0.48862 0
    outer loop
      vertex -4.45503 2.26995 0
      vertex -4.2632 2.61249 20
      vertex -4.2632 2.61249 0
    endloop
  endfacet
  facet normal -0.872496 0.48862 0
    outer loop
      vertex -4.2632 2.61249 20
      vertex -4.45503 2.26995 0
      vertex -4.45503 2.26995 20
    endloop
  endfacet
  facet normal -0.938191 0.346118 0
    outer loop
      vertex -4.75528 1.54508 0
      vertex -4.6194 1.91342 20
      vertex -4.6194 1.91342 0
    endloop
  endfacet
  facet normal -0.938191 0.346118 0
    outer loop
      vertex -4.6194 1.91342 20
      vertex -4.75528 1.54508 0
      vertex -4.75528 1.54508 20
    endloop
  endfacet
  facet normal -0.993069 0.117536 0
    outer loop
      vertex -4.98459 0.392295 0
      vertex -4.93844 0.782172 20
      vertex -4.93844 0.782172 0
    endloop
  endfacet
  facet normal -0.993069 0.117536 0
    outer loop
      vertex -4.93844 0.782172 20
      vertex -4.98459 0.392295 0
      vertex -4.98459 0.392295 20
    endloop
  endfacet
  facet normal 0 0 1
    outer loop
      vertex 4.98459 0.392295 20
      vertex 4.98459 -0.392295 20
      vertex 5 0 20
    endloop
  endfacet
  facet normal 0 0 1
    outer loop
      vertex 4.93844 0.782172 20
      vertex 4.98459 -0.392295 20
      vertex 4.98459 0.392295 20
    endloop
  endfacet
  facet normal 0 0 1
    outer loop
      vertex 4.93844 0.782172 20
      vertex 4.93844 -0.782172 20
      vertex 4.98459 -0.392295 20
    endloop
  endfacet
  facet normal 0 0 1
    outer loop
      vertex 4.86185 1.16723 20
      vertex 4.93844 -0.782172 20
      vertex 4.93844 0.782172 20
    endloop
  endfacet
  facet normal 0 0 1
    outer loop
      vertex 4.86185 1.16723 20
      vertex 4.86185 -1.16723 20
      vertex 4.93844 -0.782172 20
    endloop
  endfacet
  facet normal 0 0 1
    outer loop
      vertex 4.75528 1.54508 20
      vertex 4.86185 -1.16723 20
      vertex 4.86185 1.16723 20
    endloop
  endfacet
  facet normal 0 0 1
    outer loop
      vertex 4.75528 1.54508 20
      vertex 4.75528 -1.54508 20
      vertex 4.86185 -1.16723 20
    endloop
  endfacet
  facet normal 0 0 1
    outer loop
      vertex 4.6194 1.91342 20
      vertex 4.75528 -1.54508 20
      vertex 4.75528 1.54508 20
    endloop
  endfacet
  facet normal 0 0 1
    outer loop
      vertex 4.6194 1.91342 20
      vertex 4.6194 -1.91342 20
      vertex 4.75528 -1.54508 20
    endloop
  endfacet
  facet normal 0 0 1
    outer loop
      vertex 4.45503 2.26995 20
      vertex 4.6194 -1.91342 20
      vertex 4.6194 1.91342 20
    endloop
  endfacet
  facet normal 0 0 1
    outer loop
      vertex 4.45503 2.26995 20
      vertex 4.45503 -2.26995 20
      vertex 4.6194 -1.91342 20
    endloop
  endfacet
  facet normal 0 0 1
    outer loop
      vertex 4.2632 2.61249 20
      vertex 4.45503 -2.26995 20
      vertex 4.45503 2.26995 20
    endloop
  endfacet
  facet normal 0 0 1
    outer loop
      vertex 4.2632 2.61249 20
      vertex 4.2632 -2.61249 20
      vertex 4.45503 -2.26995 20
    endloop
  endfacet
  facet normal 0 0 1
    outer loop
      vertex 4.04508 2.93893 20
      vertex 4.2632 -2.61249 20
      vertex 4.2632 2.61249 20
    endloop
  endfacet
  facet normal 0 0 1
    outer loop
      vertex 4.04508 2.93893 20
      vertex 4.04508 -2.93893 20
      vertex 4.2632 -2.61249 20
    endloop
  endfacet
  facet normal 0 0 1
    outer loop
      vertex 3.80203 3.24724 20
      vertex 4.04508 -2.93893 20
      vertex 4.04508 2.93893 20
    endloop
  endfacet
  facet normal 0 0 1
    outer loop
      vertex 3.80203 3.24724 20
      vertex 3.80203 -3.24724 20
      vertex 4.04508 -2.93893 20
    endloop
  endfacet
  facet normal 0 0 1
    outer loop
      vertex 3.53553 3.53553 20
      vertex 3.80203 -3.24724 20
      vertex 3.80203 3.24724 20
    endloop
  endfacet
  facet normal 0 0 1
    outer loop
      vertex 3.53553 3.53553 20
      vertex 3.53553 -3.53553 20
      vertex 3.80203 -3.24724 20
    endloop
  endfacet
  facet normal 0 0 1
    outer loop
      vertex 3.24724 3.80203 20
      vertex 3.53553 -3.53553 20
      vertex 3.53553 3.53553 20
    endloop
  endfacet
  facet normal 0 0 1
    outer loop
      vertex 3.24724 3.80203 20
      vertex 3.24724 -3.80203 20
      vertex 3.53553 -3.53553 20
    endloop
  endfacet
  facet normal 0 0 1
    outer loop
      vertex 2.93893 4.04508 20
      vertex 3.24724 -3.80203 20
      vertex 3.24724 3.80203 20
    endloop
  endfacet
  facet normal 0 0 1
    outer loop
      vertex 2.93893 4.04508 20
      vertex 2.93893 -4.04508 20
      vertex 3.24724 -3.80203 20
    endloop
  endfacet
  facet normal 0 0 1
    outer loop
      vertex 2.61249 4.2632 20
      vertex 2.93893 -4.04508 20
      vertex 2.93893 4.04508 20
    endloop
  endfacet
  facet normal 0 0 1
    outer loop
      vertex 2.61249 4.2632 20
      vertex 2.61249 -4.2632 20
      vertex 2.93893 -4.04508 20
    endloop
  endfacet
  facet normal 0 0 1
    outer loop
      vertex 2.26995 4.45503 20
      vertex 2.61249 -4.2632 20
      vertex 2.61249 4.2632 20
    endloop
  endfacet
  facet normal 0 0 1
    outer loop
      vertex 2.26995 4.45503 20
      vertex 2.26995 -4.45503 20
      vertex 2.61249 -4.2632 20
    endloop
  endfacet
  facet normal 0 0 1
    outer loop
      vertex 1.91342 4.6194 20
      vertex 2.26995 -4.45503 20
      vertex 2.26995 4.45503 20
    endloop
  endfacet
  facet normal 0 0 1
    outer loop
      vertex 1.91342 4.6194 20
      vertex 1.91342 -4.6194 20
      vertex 2.26995 -4.45503 20
    endloop
  endfacet
  facet normal 0 0 1
    outer loop
      vertex 1.54508 4.75528 20
      vertex 1.91342 -4.6194 20
      vertex 1.91342 4.6194 20
    endloop
  endfacet
  facet normal 0 0 1
    outer loop
      vertex 1.54508 4.75528 20
      vertex 1.54508 -4.75528 20
      vertex 1.91342 -4.6194 20
    endloop
  endfacet
  facet normal 0 0 1
    outer loop
      vertex 1.16723 4.86185 20
      vertex 1.54508 -4.75528 20
      vertex 1.54508 4.75528 20
    endloop
  endfacet
  facet normal 0 0 1
    outer loop
      vertex 1.16723 4.86185 20
      vertex 1.16723 -4.86185 20
      vertex 1.54508 -4.75528 20
    endloop
  endfacet
  facet normal 0 0 1
    outer loop
      vertex 0.782172 4.93844 20
      vertex 1.16723 -4.86185 20
      vertex 1.16723 4.86185 20
    endloop
  endfacet
  facet normal 0 0 1
    outer loop
      vertex 0.782172 4.93844 20
      vertex 0.782172 -4.93844 20
      vertex 1.16723 -4.86185 20
    endloop
  endfacet
  facet normal 0 0 1
    outer loop
      vertex 0.392295 4.98459 20
      vertex 0.782172 -4.93844 20
      vertex 0.782172 4.93844 20
    endloop
  endfacet
  facet normal 0 0 1
    outer loop
      vertex 0.392295 4.98459 20
      vertex 0.392295 -4.98459 20
      vertex 0.782172 -4.93844 20
    endloop
  endfacet
  facet normal 0 0 1
    outer loop
      vertex 0 5 20
      vertex 0.392295 -4.98459 20
      vertex 0.392295 4.98459 20
    endloop
  endfacet
  facet normal 0 0 1
    outer loop
      vertex 0 5 20
      vertex 0 -5 20
      vertex 0.392295 -4.98459 20
    endloop
  endfacet
  facet normal -0 0 1
    outer loop
      vertex -0.392295 4.98459 20
      vertex 0 -5 20
      vertex 0 5 20
    endloop
  endfacet
  facet normal 0 0 1
    outer loop
      vertex -0.392295 4.98459 20
      vertex -0.392295 -4.98459 20
      vertex 0 -5 20
    endloop
  endfacet
  facet normal -0 0 1
    outer loop
      vertex -0.782172 4.93844 20
      vertex -0.392295 -4.98459 20
      vertex -0.392295 4.98459 20
    endloop
  endfacet
  facet normal 0 0 1
    outer loop
      vertex -0.782172 4.93844 20
      vertex -0.782172 -4.93844 20
      vertex -0.392295 -4.98459 20
    endloop
  endfacet
  facet normal -0 0 1
    outer loop
      vertex -1.16723 4.86185 20
      vertex -0.782172 -4.93844 20
      vertex -0.782172 4.93844 20
    endloop
  endfacet
  facet normal 0 0 1
    outer loop
      vertex -1.16723 4.86185 20
      vertex -1.16723 -4.86185 20
      vertex -0.782172 -4.93844 20
    endloop
  endfacet
  facet normal -0 0 1
    outer loop
      vertex -1.54508 4.75528 20
      vertex -1.16723 -4.86185 20
      vertex -1.16723 4.86185 20
    endloop
  endfacet
  facet normal 0 0 1
    outer loop
      vertex -1.54508 4.75528 20
      vertex -1.54508 -4.75528 20
      vertex -1.16723 -4.86185 20
    endloop
  endfacet
  facet normal -0 0 1
    outer loop
      vertex -1.91342 4.6194 20
      vertex -1.54508 -4.75528 20
      vertex -1.54508 4.75528 20
    endloop
  endfacet
  facet normal 0 0 1
    outer loop
      vertex -1.91342 4.6194 20
      vertex -1.91342 -4.6194 20
      vertex -1.54508 -4.75528 20
    endloop
  endfacet
  facet normal -0 0 1
    outer loop
      vertex -2.26995 4.45503 20
      vertex -1.91342 -4.6194 20
      vertex -1.91342 4.6194 20
    endloop
  endfacet
  facet normal 0 0 1
    outer loop
      vertex -2.26995 4.45503 20
      vertex -2.26995 -4.45503 20
      vertex -1.91342 -4.6194 20
    endloop
  endfacet
  facet normal -0 0 1
    outer loop
      vertex -2.61249 4.2632 20
      vertex -2.26995 -4.45503 20
      vertex -2.26995 4.45503 20
    endloop
  endfacet
  facet normal 0 0 1
    outer loop
      vertex -2.61249 4.2632 20
      vertex -2.61249 -4.2632 20
      vertex -2.26995 -4.45503 20
    endloop
  endfacet
  facet normal -0 0 1
    outer loop
      vertex -2.93893 4.04508 20
      vertex -2.61249 -4.2632 20
      vertex -2.61249 4.2632 20
    endloop
  endfacet
  facet normal 0 0 1
    outer loop
      vertex -2.93893 4.04508 20
      vertex -2.93893 -4.04508 20
      vertex -2.61249 -4.2632 20
    endloop
  endfacet
  facet normal -0 0 1
    outer loop
      vertex -3.24724 3.80203 20
      vertex -2.93893 -4.04508 20
      vertex -2.93893 4.04508 20
    endloop
  endfacet
  facet normal 0 0 1
    outer loop
      vertex -3.24724 3.80203 20
      vertex -3.24724 -3.80203 20
      vertex -2.93893 -4.04508 20
    endloop
  endfacet
  facet normal -0 0 1
    outer loop
      vertex -3.53553 3.53553 20
      vertex -3.24724 -3.80203 20
      vertex -3.24724 3.80203 20
    endloop
  endfacet
  facet normal 0 0 1
    outer loop
      vertex -3.53553 3.53553 20
      vertex -3.53553 -3.53553 20
      vertex -3.24724 -3.80203 20
    endloop
  endfacet
  facet normal -0 0 1
    outer loop
      vertex -3.80203 3.24724 20
      vertex -3.53553 -3.53553 20
      vertex -3.53553 3.53553 20
    endloop
  endfacet
  facet normal 0 0 1
    outer loop
      vertex -3.80203 3.24724 20
      vertex -3.80203 -3.24724 20
      vertex -3.53553 -3.53553 20
    endloop
  endfacet
  facet normal -0 0 1
    outer loop
      vertex -4.04508 2.93893 20
      vertex -3.80203 -3.24724 20
      vertex -3.80203 3.24724 20
    endloop
  endfacet
  facet normal 0 0 1
    outer loop
      vertex -4.04508 2.93893 20
      vertex -4.04508 -2.93893 20
      vertex -3.80203 -3.24724 20
    endloop
  endfacet
  facet normal -0 0 1
    outer loop
      vertex -4.2632 2.61249 20
      vertex -4.04508 -2.93893 20
      vertex -4.04508 2.93893 20
    endloop
  endfacet
  facet normal 0 0 1
    outer loop
      vertex -4.2632 2.61249 20
      vertex -4.2632 -2.61249 20
      vertex -4.04508 -2.93893 20
    endloop
  endfacet
  facet normal -0 0 1
    outer loop
      vertex -4.45503 2.26995 20
      vertex -4.2632 -2.61249 20
      vertex -4.2632 2.61249 20
    endloop
  endfacet
  facet normal 0 0 1
    outer loop
      vertex -4.45503 2.26995 20
      vertex -4.45503 -2.26995 20
      vertex -4.2632 -2.61249 20
    endloop
  endfacet
  facet normal -0 0 1
    outer loop
      vertex -4.6194 1.91342 20
      vertex -4.45503 -2.26995 20
      vertex -4.45503 2.26995 20
    endloop
  endfacet
  facet normal 0 0 1
    outer loop
      vertex -4.6194 1.91342 20
      vertex -4.6194 -1.91342 20
      vertex -4.45503 -2.26995 20
    endloop
  endfacet
  facet normal -0 0 1
    outer loop
      vertex -4.75528 1.54508 20
      vertex -4.6194 -1.91342 20
      vertex -4.6194 1.91342 20
    endloop
  endfacet
  facet normal 0 0 1
    outer loop
      vertex -4.75528 1.54508 20
      vertex -4.75528 -1.54508 20
      vertex -4.6194 -1.91342 20
    endloop
  endfacet
  facet normal -0 0 1
    outer loop
      vertex -4.86185 1.16723 20
      vertex -4.75528 -1.54508 20
      vertex -4.75528 1.54508 20
    endloop
  endfacet
  facet normal 0 0 1
    outer loop
      vertex -4.86185 1.16723 20
      vertex -4.86185 -1.16723 20
      vertex -4.75528 -1.54508 20
    endloop
  endfacet
  facet normal -0 0 1
    outer loop
      vertex -4.93844 0.782172 20
      vertex -4.86185 -1.16723 20
      vertex -4.86185 1.16723 20
    endloop
  endfacet
  facet normal 0 0 1
    outer loop
      vertex -4.93844 0.782172 20
      vertex -4.93844 -0.782172 20
      vertex -4.86185 -1.16723 20
    endloop
  endfacet
  facet normal -0 0 1
    outer loop
      vertex -4.98459 0.392295 20
      vertex -4.93844 -0.782172 20
      vertex -4.93844 0.782172 20
    endloop
  endfacet
  facet normal 0 0 1
    outer loop
      vertex -4.98459 0.392295 20
      vertex -4.98459 -0.392295 20
      vertex -4.93844 -0.782172 20
    endloop
  endfacet
  facet normal 0 -0 1
    outer loop
      vertex -4.98459 -0.392295 20
      vertex -4.98459 0.392295 20
      vertex -5 0 20
    endloop
  endfacet
  facet normal -0.48862 0.872496 0
    outer loop
      vertex -2.26995 4.45503 0
      vertex -2.61249 4.2632 20
      vertex -2.26995 4.45503 20
    endloop
  endfacet
  facet normal -0.48862 0.872496 0
    outer loop
      vertex -2.61249 4.2632 20
      vertex -2.26995 4.45503 0
      vertex -2.61249 4.2632 0
    endloop
  endfacet
  facet normal -0.41866 0.908143 0
    outer loop
      vertex -1.91342 4.6194 0
      vertex -2.26995 4.45503 20
      vertex -1.91342 4.6194 20
    endloop
  endfacet
  facet normal -0.41866 0.908143 0
    outer loop
      vertex -2.26995 4.45503 20
      vertex -1.91342 4.6194 0
      vertex -2.26995 4.45503 0
    endloop
  endfacet
  facet normal -0.55557 0.831469 0
    outer loop
      vertex -2.61249 4.2632 0
      vertex -2.93893 4.04508 20
      vertex -2.61249 4.2632 20
    endloop
  endfacet
  facet normal -0.55557 0.831469 0
    outer loop
      vertex -2.93893 4.04508 20
      vertex -2.61249 4.2632 0
      vertex -2.93893 4.04508 0
    endloop
  endfacet
  facet normal -0.0392622 0.999229 0
    outer loop
      vertex 0 5 0
      vertex -0.392295 4.98459 20
      vertex 0 5 20
    endloop
  endfacet
  facet normal -0.0392622 0.999229 0
    outer loop
      vertex -0.392295 4.98459 20
      vertex 0 5 0
      vertex -0.392295 4.98459 0
    endloop
  endfacet
  facet normal 0.0392622 -0.999229 0
    outer loop
      vertex 0 -5 0
      vertex 0.392295 -4.98459 20
      vertex 0 -5 20
    endloop
  endfacet
  facet normal 0.0392622 -0.999229 0
    outer loop
      vertex 0.392295 -4.98459 20
      vertex 0 -5 0
      vertex 0.392295 -4.98459 0
    endloop
  endfacet
  facet normal 0.55557 -0.831469 0
    outer loop
      vertex 2.61249 -4.2632 0
      vertex 2.93893 -4.04508 20
      vertex 2.61249 -4.2632 20
    endloop
  endfacet
  facet normal 0.55557 -0.831469 0
    outer loop
      vertex 2.93893 -4.04508 20
      vertex 2.61249 -4.2632 0
      vertex 2.93893 -4.04508 0
    endloop
  endfacet
  facet normal 0.41866 -0.908143 0
    outer loop
      vertex 1.91342 -4.6194 0
      vertex 2.26995 -4.45503 20
      vertex 1.91342 -4.6194 20
    endloop
  endfacet
  facet normal 0.41866 -0.908143 0
    outer loop
      vertex 2.26995 -4.45503 20
      vertex 1.91342 -4.6194 0
      vertex 2.26995 -4.45503 0
    endloop
  endfacet
  facet normal 0.872496 -0.48862 0
    outer loop
      vertex 4.2632 -2.61249 20
      vertex 4.45503 -2.26995 0
      vertex 4.45503 -2.26995 20
    endloop
  endfacet
  facet normal 0.872496 -0.48862 0
    outer loop
      vertex 4.45503 -2.26995 0
      vertex 4.2632 -2.61249 20
      vertex 4.2632 -2.61249 0
    endloop
  endfacet
  facet normal -0.195091 -0.980785 0
    outer loop
      vertex -1.16723 -4.86185 0
      vertex -0.782172 -4.93844 20
      vertex -1.16723 -4.86185 20
    endloop
  endfacet
  facet normal -0.195091 -0.980785 -0
    outer loop
      vertex -0.782172 -4.93844 20
      vertex -1.16723 -4.86185 0
      vertex -0.782172 -4.93844 0
    endloop
  endfacet
  facet normal -0.48862 -0.872496 0
    outer loop
      vertex -2.61249 -4.2632 0
      vertex -2.26995 -4.45503 20
      vertex -2.61249 -4.2632 20
    endloop
  endfacet
  facet normal -0.48862 -0.872496 -0
    outer loop
      vertex -2.26995 -4.45503 20
      vertex -2.61249 -4.2632 0
      vertex -2.26995 -4.45503 0
    endloop
  endfacet
  facet normal -0.346118 -0.938191 0
    outer loop
      vertex -1.91342 -4.6194 0
      vertex -1.54508 -4.75528 20
      vertex -1.91342 -4.6194 20
    endloop
  endfacet
  facet normal -0.346118 -0.938191 -0
    outer loop
      vertex -1.54508 -4.75528 20
      vertex -1.91342 -4.6194 0
      vertex -1.54508 -4.75528 0
    endloop
  endfacet
  facet normal -0.117536 -0.993069 0
    outer loop
      vertex -0.782172 -4.93844 0
      vertex -0.392295 -4.98459 20
      vertex -0.782172 -4.93844 20
    endloop
  endfacet
  facet normal -0.117536 -0.993069 -0
    outer loop
      vertex -0.392295 -4.98459 20
      vertex -0.782172 -4.93844 0
      vertex -0.392295 -4.98459 0
    endloop
  endfacet
  facet normal -0.908143 -0.41866 0
    outer loop
      vertex -4.45503 -2.26995 0
      vertex -4.6194 -1.91342 20
      vertex -4.6194 -1.91342 0
    endloop
  endfacet
  facet normal -0.908143 -0.41866 0
    outer loop
      vertex -4.6194 -1.91342 20
      vertex -4.45503 -2.26995 0
      vertex -4.45503 -2.26995 20
    endloop
  endfacet
  facet normal -0.831469 -0.55557 0
    outer loop
      vertex -4.04508 -2.93893 0
      vertex -4.2632 -2.61249 20
      vertex -4.2632 -2.61249 0
    endloop
  endfacet
  facet normal -0.831469 -0.55557 0
    outer loop
      vertex -4.2632 -2.61249 20
      vertex -4.04508 -2.93893 0
      vertex -4.04508 -2.93893 20
    endloop
  endfacet
  facet normal -0.999229 -0.0392622 0
    outer loop
      vertex -4.98459 -0.392295 0
      vertex -5 0 20
      vertex -5 0 0
    endloop
  endfacet
  facet normal -0.999229 -0.0392622 0
    outer loop
      vertex -5 0 20
      vertex -4.98459 -0.392295 0
      vertex -4.98459 -0.392295 20
    endloop
  endfacet
  facet normal 0.785317 0.619094 0
    outer loop
      vertex 4.04508 2.93893 20
      vertex 3.80203 3.24724 0
      vertex 3.80203 3.24724 20
    endloop
  endfacet
  facet normal 0.785317 0.619094 0
    outer loop
      vertex 3.80203 3.24724 0
      vertex 4.04508 2.93893 20
      vertex 4.04508 2.93893 0
    endloop
  endfacet
  facet normal 0.271439 0.962456 -0
    outer loop
      vertex 1.54508 4.75528 0
      vertex 1.16723 4.86185 20
      vertex 1.54508 4.75528 20
    endloop
  endfacet
  facet normal 0.271439 0.962456 0
    outer loop
      vertex 1.16723 4.86185 20
      vertex 1.54508 4.75528 0
      vertex 1.16723 4.86185 0
    endloop
  endfacet
  facet normal 0.6788 0.734323 -0
    outer loop
      vertex 3.53553 3.53553 0
      vertex 3.24724 3.80203 20
      vertex 3.53553 3.53553 20
    endloop
  endfacet
  facet normal 0.6788 0.734323 0
    outer loop
      vertex 3.24724 3.80203 20
      vertex 3.53553 3.53553 0
      vertex 3.24724 3.80203 0
    endloop
  endfacet
  facet normal -0.785317 0.619094 0
    outer loop
      vertex -4.04508 2.93893 0
      vertex -3.80203 3.24724 20
      vertex -3.80203 3.24724 0
    endloop
  endfacet
  facet normal -0.785317 0.619094 0
    outer loop
      vertex -3.80203 3.24724 20
      vertex -4.04508 2.93893 0
      vertex -4.04508 2.93893 20
    endloop
  endfacet
  facet normal -0.734323 0.6788 0
    outer loop
      vertex -3.80203 3.24724 0
      vertex -3.53553 3.53553 20
      vertex -3.53553 3.53553 0
    endloop
  endfacet
  facet normal -0.734323 0.6788 0
    outer loop
      vertex -3.53553 3.53553 20
      vertex -3.80203 3.24724 0
      vertex -3.80203 3.24724 20
    endloop
  endfacet
  facet normal -0.962456 0.271439 0
    outer loop
      vertex -4.86185 1.16723 0
      vertex -4.75528 1.54508 20
      vertex -4.75528 1.54508 0
    endloop
  endfacet
  facet normal -0.962456 0.271439 0
    outer loop
      vertex -4.75528 1.54508 20
      vertex -4.86185 1.16723 0
      vertex -4.86185 1.16723 20
    endloop
  endfacet
  facet normal -0.619094 0.785317 0
    outer loop
      vertex -2.93893 4.04508 0
      vertex -3.24724 3.80203 20
      vertex -2.93893 4.04508 20
    endloop
  endfacet
  facet normal -0.619094 0.785317 0
    outer loop
      vertex -3.24724 3.80203 20
      vertex -2.93893 4.04508 0
      vertex -3.24724 3.80203 0
    endloop
  endfacet
  facet normal -0.195091 0.980785 0
    outer loop
      vertex -0.782172 4.93844 0
      vertex -1.16723 4.86185 20
      vertex -0.782172 4.93844 20
    endloop
  endfacet
  facet normal -0.195091 0.980785 0
    outer loop
      vertex -1.16723 4.86185 20
      vertex -0.782172 4.93844 0
      vertex -1.16723 4.86185 0
    endloop
  endfacet
  facet normal -0.271439 0.962456 0
    outer loop
      vertex -1.16723 4.86185 0
      vertex -1.54508 4.75528 20
      vertex -1.16723 4.86185 20
    endloop
  endfacet
  facet normal -0.271439 0.962456 0
    outer loop
      vertex -1.54508 4.75528 20
      vertex -1.16723 4.86185 0
      vertex -1.54508 4.75528 0
    endloop
  endfacet
  facet normal 0.999229 -0.0392622 0
    outer loop
      vertex 4.98459 -0.392295 20
      vertex 5 0 0
      vertex 5 0 20
    endloop
  endfacet
  facet normal 0.999229 -0.0392622 0
    outer loop
      vertex 5 0 0
      vertex 4.98459 -0.392295 20
      vertex 4.98459 -0.392295 0
    endloop
  endfacet
  facet normal 0.117536 -0.993069 0
    outer loop
      vertex 0.392295 -4.98459 0
      vertex 0.782172 -4.93844 20
      vertex 0.392295 -4.98459 20
    endloop
  endfacet
  facet normal 0.117536 -0.993069 0
    outer loop
      vertex 0.782172 -4.93844 20
      vertex 0.392295 -4.98459 0
      vertex 0.782172 -4.93844 0
    endloop
  endfacet
  facet normal 0.346118 -0.938191 0
    outer loop
      vertex 1.54508 -4.75528 0
      vertex 1.91342 -4.6194 20
      vertex 1.54508 -4.75528 20
    endloop
  endfacet
  facet normal 0.346118 -0.938191 0
    outer loop
      vertex 1.91342 -4.6194 20
      vertex 1.54508 -4.75528 0
      vertex 1.91342 -4.6194 0
    endloop
  endfacet
  facet normal 0.195091 -0.980785 0
    outer loop
      vertex 0.782172 -4.93844 0
      vertex 1.16723 -4.86185 20
      vertex 0.782172 -4.93844 20
    endloop
  endfacet
  facet normal 0.195091 -0.980785 0
    outer loop
      vertex 1.16723 -4.86185 20
      vertex 0.782172 -4.93844 0
      vertex 1.16723 -4.86185 0
    endloop
  endfacet
  facet normal 0.619094 -0.785317 0
    outer loop
      vertex 2.93893 -4.04508 0
      vertex 3.24724 -3.80203 20
      vertex 2.93893 -4.04508 20
    endloop
  endfacet
  facet normal 0.619094 -0.785317 0
    outer loop
      vertex 3.24724 -3.80203 20
      vertex 2.93893 -4.04508 0
      vertex 3.24724 -3.80203 0
    endloop
  endfacet
  facet normal 0.48862 -0.872496 0
    outer loop
      vertex 2.26995 -4.45503 0
      vertex 2.61249 -4.2632 20
      vertex 2.26995 -4.45503 20
    endloop
  endfacet
  facet normal 0.48862 -0.872496 0
    outer loop
      vertex 2.61249 -4.2632 20
      vertex 2.26995 -4.45503 0
      vertex 2.61249 -4.2632 0
    endloop
  endfacet
  facet normal 0.734323 -0.6788 0
    outer loop
      vertex 3.53553 -3.53553 20
      vertex 3.80203 -3.24724 0
      vertex 3.80203 -3.24724 20
    endloop
  endfacet
  facet normal 0.734323 -0.6788 0
    outer loop
      vertex 3.80203 -3.24724 0
      vertex 3.53553 -3.53553 20
      vertex 3.53553 -3.53553 0
    endloop
  endfacet
  facet normal 0.831469 -0.55557 0
    outer loop
      vertex 4.04508 -2.93893 20
      vertex 4.2632 -2.61249 0
      vertex 4.2632 -2.61249 20
    endloop
  endfacet
  facet normal 0.831469 -0.55557 0
    outer loop
      vertex 4.2632 -2.61249 0
      vertex 4.04508 -2.93893 20
      vertex 4.04508 -2.93893 0
    endloop
  endfacet
  facet normal 0.908143 -0.41866 0
    outer loop
      vertex 4.45503 -2.26995 20
      vertex 4.6194 -1.91342 0
      vertex 4.6194 -1.91342 20
    endloop
  endfacet
  facet normal 0.908143 -0.41866 0
    outer loop
      vertex 4.6194 -1.91342 0
      vertex 4.45503 -2.26995 20
      vertex 4.45503 -2.26995 0
    endloop
  endfacet
  facet normal 0.980785 -0.195091 0
    outer loop
      vertex 4.86185 -1.16723 20
      vertex 4.93844 -0.782172 0
      vertex 4.93844 -0.782172 20
    endloop
  endfacet
  facet normal 0.980785 -0.195091 0
    outer loop
      vertex 4.93844 -0.782172 0
      vertex 4.86185 -1.16723 20
      vertex 4.86185 -1.16723 0
    endloop
  endfacet
  facet normal 0.962456 -0.271439 0
    outer loop
      vertex 4.75528 -1.54508 20
      vertex 4.86185 -1.16723 0
      vertex 4.86185 -1.16723 20
    endloop
  endfacet
  facet normal 0.962456 -0.271439 0
    outer loop
      vertex 4.86185 -1.16723 0
      vertex 4.75528 -1.54508 20
      vertex 4.75528 -1.54508 0
    endloop
  endfacet
  facet normal 0.993069 -0.117536 0
    outer loop
      vertex 4.93844 -0.782172 20
      vertex 4.98459 -0.392295 0
      vertex 4.98459 -0.392295 20
    endloop
  endfacet
  facet normal 0.993069 -0.117536 0
    outer loop
      vertex 4.98459 -0.392295 0
      vertex 4.93844 -0.782172 20
      vertex 4.93844 -0.782172 0
    endloop
  endfacet
  facet normal -0.6788 -0.734323 0
    outer loop
      vertex -3.53553 -3.53553 0
      vertex -3.24724 -3.80203 20
      vertex -3.53553 -3.53553 20
    endloop
  endfacet
  facet normal -0.6788 -0.734323 -0
    outer loop
      vertex -3.24724 -3.80203 20
      vertex -3.53553 -3.53553 0
      vertex -3.24724 -3.80203 0
    endloop
  endfacet
  facet normal -0.55557 -0.831469 0
    outer loop
      vertex -2.93893 -4.04508 0
      vertex -2.61249 -4.2632 20
      vertex -2.93893 -4.04508 20
    endloop
  endfacet
  facet normal -0.55557 -0.831469 -0
    outer loop
      vertex -2.61249 -4.2632 20
      vertex -2.93893 -4.04508 0
      vertex -2.61249 -4.2632 0
    endloop
  endfacet
  facet normal -0.41866 -0.908143 0
    outer loop
      vertex -2.26995 -4.45503 0
      vertex -1.91342 -4.6194 20
      vertex -2.26995 -4.45503 20
    endloop
  endfacet
  facet normal -0.41866 -0.908143 -0
    outer loop
      vertex -1.91342 -4.6194 20
      vertex -2.26995 -4.45503 0
      vertex -1.91342 -4.6194 0
    endloop
  endfacet
  facet normal -0.271439 -0.962456 0
    outer loop
      vertex -1.54508 -4.75528 0
      vertex -1.16723 -4.86185 20
      vertex -1.54508 -4.75528 20
    endloop
  endfacet
  facet normal -0.271439 -0.962456 -0
    outer loop
      vertex -1.16723 -4.86185 20
      vertex -1.54508 -4.75528 0
      vertex -1.16723 -4.86185 0
    endloop
  endfacet
  facet normal -0.872496 -0.48862 0
    outer loop
      vertex -4.2632 -2.61249 0
      vertex -4.45503 -2.26995 20
      vertex -4.45503 -2.26995 0
    endloop
  endfacet
  facet normal -0.872496 -0.48862 0
    outer loop
      vertex -4.45503 -2.26995 20
      vertex -4.2632 -2.61249 0
      vertex -4.2632 -2.61249 20
    endloop
  endfacet
  facet normal -0.785317 -0.619094 0
    outer loop
      vertex -3.80203 -3.24724 0
      vertex -4.04508 -2.93893 20
      vertex -4.04508 -2.93893 0
    endloop
  endfacet
  facet normal -0.785317 -0.619094 0
    outer loop
      vertex -4.04508 -2.93893 20
      vertex -3.80203 -3.24724 0
      vertex -3.80203 -3.24724 20
    endloop
  endfacet
  facet normal -0.980785 -0.195091 0
    outer loop
      vertex -4.86185 -1.16723 0
      vertex -4.93844 -0.782172 20
      vertex -4.93844 -0.782172 0
    endloop
  endfacet
  facet normal -0.980785 -0.195091 0
    outer loop
      vertex -4.93844 -0.782172 20
      vertex -4.86185 -1.16723 0
      vertex -4.86185 -1.16723 20
    endloop
  endfacet
  facet normal -0.993069 -0.117536 0
    outer loop
      vertex -4.93844 -0.782172 0
      vertex -4.98459 -0.392295 20
      vertex -4.98459 -0.392295 0
    endloop
  endfacet
  facet normal -0.993069 -0.117536 0
    outer loop
      vertex -4.98459 -0.392295 20
      vertex -4.93844 -0.782172 0
      vertex -4.93844 -0.782172 20
    endloop
  endfacet
  facet normal 0.271439 -0.962456 0
    outer loop
      vertex 1.16723 -4.86185 0
      vertex 1.54508 -4.75528 20
      vertex 1.16723 -4.86185 20
    endloop
  endfacet
  facet normal 0.271439 -0.962456 0
    outer loop
      vertex 1.54508 -4.75528 20
      vertex 1.16723 -4.86185 0
      vertex 1.54508 -4.75528 0
    endloop
  endfacet
  facet normal 0.6788 -0.734323 0
    outer loop
      vertex 3.24724 -3.80203 0
      vertex 3.53553 -3.53553 20
      vertex 3.24724 -3.80203 20
    endloop
  endfacet
  facet normal 0.6788 -0.734323 0
    outer loop
      vertex 3.53553 -3.53553 20
      vertex 3.24724 -3.80203 0
      vertex 3.53553 -3.53553 0
    endloop
  endfacet
  facet normal 0.785317 -0.619094 0
    outer loop
      vertex 3.80203 -3.24724 20
      vertex 4.04508 -2.93893 0
      vertex 4.04508 -2.93893 20
    endloop
  endfacet
  facet normal 0.785317 -0.619094 0
    outer loop
      vertex 4.04508 -2.93893 0
      vertex 3.80203 -3.24724 20
      vertex 3.80203 -3.24724 0
    endloop
  endfacet
  facet normal -0.619094 -0.785317 0
    outer loop
      vertex -3.24724 -3.80203 0
      vertex -2.93893 -4.04508 20
      vertex -3.24724 -3.80203 20
    endloop
  endfacet
  facet normal -0.619094 -0.785317 -0
    outer loop
      vertex -2.93893 -4.04508 20
      vertex -3.24724 -3.80203 0
      vertex -2.93893 -4.04508 0
    endloop
  endfacet
  facet normal -0.962456 -0.271439 0
    outer loop
      vertex -4.75528 -1.54508 0
      vertex -4.86185 -1.16723 20
      vertex -4.86185 -1.16723 0
    endloop
  endfacet
  facet normal -0.962456 -0.271439 0
    outer loop
      vertex -4.86185 -1.16723 20
      vertex -4.75528 -1.54508 0
      vertex -4.75528 -1.54508 20
    endloop
  endfacet
  facet normal 1 -0 0
    outer loop
      vertex -2.5 -2.5 5
      vertex -2.5 2.5 0
      vertex -2.5 2.5 5
    endloop
  endfacet
  facet normal 1 0 0
    outer loop
      vertex -2.5 2.5 0
      vertex -2.5 -2.5 5
      vertex -2.5 -2.5 0
    endloop
  endfacet
  facet normal 0 0 -1
    outer loop
      vertex -2.5 -2.5 5
      vertex 2.5 2.5 5
      vertex 2.5 -2.5 5
    endloop
  endfacet
  facet normal -0 0 -1
    outer loop
      vertex 2.5 2.5 5
      vertex -2.5 -2.5 5
      vertex -2.5 2.5 5
    endloop
  endfacet
  facet normal -1 0 0
    outer loop
      vertex 2.5 -2.5 0
      vertex 2.5 2.5 5
      vertex 2.5 2.5 0
    endloop
  endfacet
  facet normal -1 -0 0
    outer loop
      vertex 2.5 2.5 5
      vertex 2.5 -2.5 0
      vertex 2.5 -2.5 5
    endloop
  endfacet
  facet normal 0 -1 0
    outer loop
      vertex -2.5 2.5 0
      vertex 2.5 2.5 5
      vertex -2.5 2.5 5
    endloop
  endfacet
  facet normal 0 -1 -0
    outer loop
      vertex 2.5 2.5 5
      vertex -2.5 2.5 0
      vertex 2.5 2.5 0
    endloop
  endfacet
  facet normal 0 1 -0
    outer loop
      vertex 2.5 -2.5 0
      vertex -2.5 -2.5 5
      vertex 2.5 -2.5 5
    endloop
  endfacet
  facet normal 0 1 0
    outer loop
      vertex -2.5 -2.5 5
      vertex 2.5 -2.5 0
      vertex -2.5 -2.5 0
    endloop
  endfacet
endsolid OpenSCAD_Model
